<svg xmlns="http://www.w3.org/2000/svg" xmlns:xlink="http://www.w3.org/1999/xlink" width="189.887" height="53.926" viewBox="0 0 189.887 53.926">
  <defs>
    <clipPath id="clip-path">
      <rect id="사각형_412" data-name="사각형 412" width="189.887" height="53.926" fill="none"/>
    </clipPath>
    <clipPath id="clip-path-3">
      <path id="패스_367" data-name="패스 367" d="M46.2,23.212C45.067,32.594,56.307,41.664,71.3,43.473s28.072-4.33,29.2-13.711S90.4,11.311,75.4,9.5a43.371,43.371,0,0,0-5.209-.317c-12.705,0-23,5.752-23.994,14.025" transform="translate(-46.12 -9.187)" fill="none"/>
    </clipPath>
    <clipPath id="clip-path-4">
      <path id="패스_369" data-name="패스 369" d="M11.311,17.786c-1,8.307,10.342,16.508,25.339,18.317s27.969-3.461,28.97-11.767S55.276,7.826,40.279,6.019a48.676,48.676,0,0,0-5.847-.357c-12.384,0-22.252,4.919-23.121,12.124" transform="translate(-11.25 -5.662)" fill="none"/>
    </clipPath>
  </defs>
  <g id="그룹_858" data-name="그룹 858" transform="translate(0 0)">
    <g id="그룹_849" data-name="그룹 849" transform="translate(0 0)">
      <g id="그룹_848" data-name="그룹 848" clip-path="url(#clip-path)">
        <path id="패스_275" data-name="패스 275" d="M42.821,15.44a11.6,11.6,0,1,1-11.6-11.6,11.6,11.6,0,0,1,11.6,11.6" transform="translate(21.561 4.221)" fill="#fef0d7"/>
        <path id="패스_276" data-name="패스 276" d="M59.065,15.538A11.084,11.084,0,1,1,47.98,4.453,11.086,11.086,0,0,1,59.065,15.538" transform="translate(40.538 4.893)" fill="#fef0d7"/>
        <path id="패스_277" data-name="패스 277" d="M30.878,23.443a6.991,6.991,0,1,1-6.991-6.991,6.99,6.99,0,0,1,6.991,6.991" transform="translate(18.564 18.077)" fill="#fef0d7"/>
        <path id="패스_278" data-name="패스 278" d="M66.086,23.387a6.2,6.2,0,1,1-6.2-6.2,6.2,6.2,0,0,1,6.2,6.2" transform="translate(58.991 18.887)" fill="#fef0d7"/>
        <path id="패스_279" data-name="패스 279" d="M89.214,13.636A7.107,7.107,0,1,1,82.108,6.53a7.106,7.106,0,0,1,7.106,7.106" transform="translate(82.401 7.175)" fill="#fef0d7"/>
        <path id="패스_280" data-name="패스 280" d="M151.5,28.788H13.1a3.408,3.408,0,0,1-3.4-3.4v-.913a3.408,3.408,0,0,1,3.4-3.4H151.5a3.41,3.41,0,0,1,3.4,3.4v.913a3.41,3.41,0,0,1-3.4,3.4" transform="translate(10.661 23.156)" fill="#fef0d7"/>
        <path id="패스_281" data-name="패스 281" d="M17.542,17.336a2.977,2.977,0,1,1-2.974-3.085,3.032,3.032,0,0,1,2.974,3.085" transform="translate(12.736 15.658)" fill="#fef0d7"/>
        <path id="패스_282" data-name="패스 282" d="M24.156,21.85a2.977,2.977,0,1,1-2.974-3.085,3.032,3.032,0,0,1,2.974,3.085" transform="translate(20.003 20.618)" fill="#fef0d7"/>
        <path id="패스_283" data-name="패스 283" d="M56.808,21.85a2.977,2.977,0,1,1-2.974-3.085,3.032,3.032,0,0,1,2.974,3.085" transform="translate(55.877 20.618)" fill="#fef0d7"/>
        <path id="패스_284" data-name="패스 284" d="M62.4,21.832c0,3.618-2.246,6.55-5.016,6.55s-5.016-2.932-5.016-6.55,2.246-6.55,5.016-6.55,5.016,2.932,5.016,6.55" transform="translate(57.54 16.791)" fill="#fef0d7"/>
        <path id="패스_285" data-name="패스 285" d="M75,19.448c0,8.9-2.246,16.116-5.016,16.116s-5.016-7.215-5.016-16.116S67.217,3.332,69.987,3.332,75,10.547,75,19.448" transform="translate(71.382 3.662)" fill="#fef0d7"/>
        <path id="패스_286" data-name="패스 286" d="M46.929,21.277c0,8.9-2.246,16.116-5.016,16.116S36.9,30.177,36.9,21.277,39.143,5.161,41.913,5.161s5.016,7.215,5.016,16.116" transform="translate(40.538 5.671)" fill="#fef0d7"/>
        <path id="패스_287" data-name="패스 287" d="M21.726,42.531a25.14,25.14,0,0,1-9.442-1.794l-.067-.027a5.032,5.032,0,0,1-.638-.258A13.343,13.343,0,0,1,5.09,34.81a9.578,9.578,0,0,1-.229-8.861,3.468,3.468,0,0,0,.239-.607,4.358,4.358,0,0,0-.9-.212,3.149,3.149,0,0,1,.453-6.265h6.993a14.762,14.762,0,0,1-2.225-2.8c-.222-.39-.4-.72-.55-1.039-2.132-4.223-.8-7.213.2-8.626a9.373,9.373,0,0,1,3.463-2.9A20.188,20.188,0,0,1,21.4,1.5H43.647a3.148,3.148,0,0,1,1.838,5.7h0a2.335,2.335,0,0,0-.72,1.515c-.065,1.221.871,2.865,2.634,4.628a3.147,3.147,0,0,1-2.227,5.373H41.907c2.789,2.376,4.924,5.368,4.924,9.232,0,6.009-6.3,10.89-12.145,12.884a39.612,39.612,0,0,1-9.5,1.7Zm2.2-8.388c2.953,0,4.042-.458,4.672-3.156.164-.686-.89-1.784-2.974-3.129A8.093,8.093,0,0,1,22.866,32.3a5.507,5.507,0,0,0-1.184,1.268,3.155,3.155,0,0,0,1.165.562h.01c.323,0,.695.008,1.072.008M25.25,9.655a9.457,9.457,0,0,0,2,1.072,9.428,9.428,0,0,1,.1-1.282,15.938,15.938,0,0,0-2.1.21" transform="translate(1.647 1.649)" fill="#fef0d7"/>
        <path id="패스_288" data-name="패스 288" d="M45.294,6.3h.01m-.01,0s-5.463,3.933,1.53,10.924H37.209c-2.4,0-4.733-1.421-5.1-3.824a6.475,6.475,0,0,1,.583-3.75C33.3,8,30.141,7.935,29.66,7.935H29.6s-.042,0-.118,0c-1.137,0-10.076.162-5.161,5.28,1.964,2.04,5.862,2.768,8.919,4.407,4.77,2.548,12.088,6.189,12.088,11.979,0,4.26-5.207,8.265-10.013,9.9a37.239,37.239,0,0,1-8.483,1.53H23.373a22.045,22.045,0,0,1-8.265-1.568c-.145-.071-.327-.107-.472-.18A10.532,10.532,0,0,1,9.5,34.951a6.485,6.485,0,0,1-.145-6.009c.837-1.71,1.456-4.623-3.06-5.278H19.952A4.3,4.3,0,0,1,24.03,26.5a4.469,4.469,0,0,1-1.566,5.062c-5.608,4.733.29,7.318,1.82,7.354.422.01.854.019,1.293.019,3.133,0,6.556-.512,7.738-5.589.655-2.73-1.6-4.806-4.844-6.81-4.877-2.984-11.941-5.862-14.71-10.449a7.857,7.857,0,0,1-.4-.764c-1.2-2.332-1.018-4.116-.071-5.463a6.245,6.245,0,0,1,2.294-1.893A16.985,16.985,0,0,1,23.045,6.3H45.294M45.3,0H23.045A23.653,23.653,0,0,0,12.674,2.386,12.521,12.521,0,0,0,8.166,6.2a11.1,11.1,0,0,0-.8,11.167H6.3a6.3,6.3,0,0,0-3.549,11.5,12.6,12.6,0,0,0,1.266,9.171,16.624,16.624,0,0,0,8.009,6.978c.3.136.556.231.732.292h0a28.288,28.288,0,0,0,10.617,2.023h3.461a42.06,42.06,0,0,0,10.537-1.874c6.854-2.338,14.254-8.3,14.254-15.856a13.242,13.242,0,0,0-1.868-6.81,6.3,6.3,0,0,0,1.517-10.021,8.833,8.833,0,0,1-1.543-1.939,6.125,6.125,0,0,0,1.738-6.4A6.347,6.347,0,0,0,45.757.017C45.606.006,45.455,0,45.3,0m-.01,12.592h0Z" transform="translate(0 0.001)" fill="#fef0d7"/>
        <path id="패스_289" data-name="패스 289" d="M24.589,42.569a3.149,3.149,0,0,1-1.442-5.948,9.034,9.034,0,0,0,1.616-1.356c2.77-2.867,1.549-4.623,1.028-5.373-.094-.122-.243-.34-.388-.55,0,0-.283-.42-.336-.506C22.56,24.506,23.521,21.072,24.933,18l.474-.953a13.523,13.523,0,0,0,1.274-3.083c.59-2.6-1.975-5.23-2-5.257a2.093,2.093,0,0,1-.418-.464,1.934,1.934,0,0,0-.913-.661A3.148,3.148,0,0,1,24.48,1.5h30a8.989,8.989,0,0,1,8.974,8.974,9.124,9.124,0,0,1-4.019,7.469,36.176,36.176,0,0,1-3.673,2.218c8.842,2.978,14.063,9.043,14.063,14.2a8.182,8.182,0,0,1-8.172,8.172H39.085a3.087,3.087,0,0,1-.392.027,3.625,3.625,0,0,1-.426-.025l-13.677.036M42.269,26.577a2.431,2.431,0,0,0,.76.8l.884.6c.657.445,1.488,1.009,2.319,1.687a13.577,13.577,0,0,0-1.44-2.063,3.2,3.2,0,0,0-2.126-1.068,2.583,2.583,0,0,0-.279.017l-.118.019m2.5-15.505.019.107a2.12,2.12,0,0,0-.218-1.211c.057.319.128.716.2,1.1" transform="translate(23.437 1.649)" fill="#fef0d7"/>
        <path id="패스_290" data-name="패스 290" d="M56.131,6.3a5.84,5.84,0,0,1,5.826,5.826A5.936,5.936,0,0,1,59.3,17,46.424,46.424,0,0,1,44.7,23.19a13.012,13.012,0,0,1,1.415-.065c1.482,0,3.161.147,3.538.174.073,0,.073.036.073.036,11.8,1.312,18.6,7.975,18.6,12.672A5.033,5.033,0,0,1,63.3,41.031H40.51a.712.712,0,0,1-.168.027.109.109,0,0,1-.086-.027l-14.019.038A11.2,11.2,0,0,0,28.678,39.1c2-2.076,4-5.534,1.345-9.358-.218-.292-.4-.583-.581-.837-1.857-3.2-1.093-5.572,0-7.937a20.733,20.733,0,0,0,1.966-4.7c.982-4.334-2.73-8.048-2.951-8.231A5.077,5.077,0,0,0,26.128,6.3ZM40.693,23.226a16.7,16.7,0,0,0,4.042-2.294c6.445-6.262,5.316-9.939,3.459-11.906a3.407,3.407,0,0,0-2.407-.965,2.664,2.664,0,0,0-2.581,1.694c-.437,1.056-.183,1.82.327,4.733a8.8,8.8,0,0,1-.619,4.225,23.819,23.819,0,0,1-2.22,4.514m7.1,16.166c6.372-.434,5.1-7.354,1.056-12.16a6.309,6.309,0,0,0-4.533-2.191,5.325,5.325,0,0,0-.674.042c-4.26.583-3.532,4.661-.728,6.554,3.1,2.149,6.955,4.26,4.879,7.755M56.131,0h-30a6.3,6.3,0,0,0-2.51,12.07,6.55,6.55,0,0,0,.523.556,3.884,3.884,0,0,1,1.127,2.254,11.352,11.352,0,0,1-1.018,2.395c-.157.313-.315.623-.466.934-.021.04-.04.082-.059.124a13.855,13.855,0,0,0,.269,13.732c.1.172.208.34.325.5l.128.189c.141.206.285.418.443.634a1.741,1.741,0,0,1,.1.164,3.877,3.877,0,0,1-.839,1.177,6.982,6.982,0,0,1-.949.823,6.3,6.3,0,0,0,3.039,11.811h.017l13.522-.036q.283.025.567.025c.2,0,.4-.008.6-.027H63.3a11.334,11.334,0,0,0,11.32-11.32c0-6.132-4.479-11.274-10.645-14.678a12.2,12.2,0,0,0,4.273-9.207A12.138,12.138,0,0,0,56.131,0M43.986,31.254l-.025-.044.025.044" transform="translate(21.789 0.001)" fill="#fef0d7"/>
        <path id="패스_291" data-name="패스 291" d="M80.96,42.621a9.784,9.784,0,0,1-9.28-6.98,23.252,23.252,0,0,1-.877-5.326H67.344a9.382,9.382,0,0,1-1.381-.1,13.218,13.218,0,0,1,.292,4.141,9.062,9.062,0,0,1-9,8.231H45.314a3.149,3.149,0,0,1-2.34-5.255c.115-.134,3.207-3.75,1.307-7.813C41.2,22.885,40.5,20.86,42.835,13.8a7.576,7.576,0,0,0-.919-7,3.135,3.135,0,0,1-.77-2.069c0-.1,0-.2.01-.294a3.15,3.15,0,0,1,3.138-2.884H56.345c4.716.2,7.016,2.632,8.235,5.161,2.191-2.68,5.786-5.161,11.757-5.161H93.2a3.149,3.149,0,0,1,.865,6.176A9.279,9.279,0,0,0,92.2,10.9c-.388.915.474,2.833,1.31,4.686,1.639,3.635,3.88,8.615.98,14.2-2.241,4.294.823,6.338,1.645,6.793a3.148,3.148,0,0,1-1.232,6.044ZM76.5,14.3a12.788,12.788,0,0,0-.94,1.778A15.728,15.728,0,0,0,76.5,14.3" transform="translate(45.206 1.706)" fill="#fef0d7"/>
        <path id="패스_292" data-name="패스 292" d="M94.939,6.348s-1.82,0-3.9,4.989c-2.113,4.953,6.3,11.142,2.4,18.643a7.827,7.827,0,0,0,3.2,11.142H82.706a6.575,6.575,0,0,1-6.262-4.733C75.1,31.8,75.35,25.209,78.628,21.276a21.912,21.912,0,0,0,4.441-11.5,1.186,1.186,0,0,0-1.217-1.316,1.391,1.391,0,0,0-.749.222c-12.051,8.449-6.7,20.137-6.7,20.137H69.087a6.277,6.277,0,0,1-6.082-4.661,53.049,53.049,0,0,1-1.091-9.685c-.218-3.969-2.766-6.3-4.479-6.554a1.977,1.977,0,0,0-.262-.019c-1.064,0-1.161,1.039-1.194,1.511-.145,3.9.183,12.38,5.425,17.625a10.677,10.677,0,0,1,3.459,8.7A5.869,5.869,0,0,1,59,41.085H47.057s4.661-5.171,1.822-11.251c-2.842-6.118-3.349-7.247-1.312-13.4a10.664,10.664,0,0,0-1.53-10.048h.22l-.22-.038H58.09c6.846.292,5.864,6.955,7.318,9.795.069.128.13.187.193.187.8,0,1.492-9.981,12.479-9.981Zm1.713,34.773h0M94.939.052H78.08A18.027,18.027,0,0,0,66.81,3.534,11.958,11.958,0,0,0,58.359.058c-.09,0-.178-.006-.269-.006H46.037A6.277,6.277,0,0,0,44,.392a6.072,6.072,0,0,0-3.912,3.415,6.009,6.009,0,0,0,1.131,6.634,4.479,4.479,0,0,1,.384,3.992c-2.7,8.149-1.706,11,1.57,18.053,1.035,2.214-.768,4.363-.787,4.384a6.3,6.3,0,0,0,4.676,10.512H59a12.271,12.271,0,0,0,11.627-8.535,12.949,12.949,0,0,0,12.078,8.571H96.651a6.3,6.3,0,0,0,2.73-11.971c-1.175-.756-.917-1.475-.355-2.554,3.61-6.949.787-13.213-.9-16.955a24.943,24.943,0,0,1-1.077-2.632,10.565,10.565,0,0,1,.688-1.318A6.3,6.3,0,0,0,94.939.052m0,12.592h0Z" transform="translate(43.463 0.058)" fill="#fef0d7"/>
        <path id="패스_293" data-name="패스 293" d="M69.623,42.569a3.148,3.148,0,0,1-1.37-5.981c1.53-.743,3.979-4.08,3.794-5.175a16.505,16.505,0,0,0-1.116-1.677c-.3-.42-.615-.865-.932-1.335-1.557-2.323-5.687-8.479-.848-15.74a9.071,9.071,0,0,0,.6-1.035,3.407,3.407,0,0,0,.478-2.51,3.366,3.366,0,0,0-1.813-1.431,3.216,3.216,0,0,1-2.235-3.037A3.149,3.149,0,0,1,69.331,1.5H92.469A3.148,3.148,0,0,1,93.85,7.477C84.278,12.147,79.01,17.8,79.01,23.393c0,5.671,5.322,10.258,9.788,13.108a3.149,3.149,0,0,1-.2,5.425,4.167,4.167,0,0,1-2.229.642Z" transform="translate(72.714 1.649)" fill="#fef0d7"/>
        <path id="패스_294" data-name="패스 294" d="M94.117,6.3h.01m-.01,0C83.762,11.348,77.51,17.891,77.51,25.041c0,5.813,4.132,11.226,11.243,15.761-.027.015-.05.034-.078.048a1.28,1.28,0,0,1-.655.218H71.271c2.33-1.129,6.407-5.935,5.425-8.957a22.227,22.227,0,0,0-2.441-3.824c-2.074-3.1-4.187-7.209-.837-12.233a12.122,12.122,0,0,0,.837-1.456c2.986-5.973-2.548-8.048-3.24-8.267a.035.035,0,0,1-.036-.036H94.117m.01-6.3H70.979a6.3,6.3,0,0,0-6.3,6.3,6.361,6.361,0,0,0,3.786,5.792c-.061.107-.166.281-.346.56-5.95,8.924-.791,16.617.9,19.146.344.506.674.974.988,1.412.061.086.126.18.2.275a7.836,7.836,0,0,1-1.775,1.966,6.3,6.3,0,0,0,2.837,11.916H88.02A7.549,7.549,0,0,0,91.991,46.2l.023-.015a6.3,6.3,0,0,0,.126-10.693c-3.112-1.985-8.334-5.983-8.334-10.454,0-4.178,4.833-9.041,12.938-13.022A6.3,6.3,0,0,0,94.127,0m-.01,12.592h0Z" transform="translate(71.066 0.001)" fill="#fef0d7"/>
        <path id="패스_295" data-name="패스 295" d="M83.688,42.3a3.149,3.149,0,0,1-1.694-.493c-8.309-5.3-12.7-11.669-12.7-18.416,0-8.25,6.355-15.709,18.374-21.574A3.156,3.156,0,0,1,89.05,1.5h18.189A3.147,3.147,0,0,1,108.6,7.485a4.168,4.168,0,0,0-1.92,2.26c-.357,1.354.449,2.972,1.186,4.092a3.149,3.149,0,0,1-2.63,4.879h-.884c.061,2.166-.2,6.04-2.466,8.617a7.383,7.383,0,0,1-5.717,2.489c-4.166,0-7.423-2.372-9.8-4.105A12.947,12.947,0,0,0,83.82,24.1c-.044-.01-.088-.019-.13-.031a2.4,2.4,0,0,0-.262-.017c-.206,0-.6,0-1.016.888.376.411,1.007.984,1.465,1.4,2.6,2.348,7.431,6.72,3.857,13.06a6.433,6.433,0,0,1-2.552,2.525,3.129,3.129,0,0,1-1.494.378m3.2-30.284a24.456,24.456,0,0,0-2.29,1.36,6.123,6.123,0,0,0-2.447,2.875q.082-.028.17-.063a7.267,7.267,0,0,0,1.039-.462,3.206,3.206,0,0,1,.657-.355,11.5,11.5,0,0,1,3.014-1.056l-.013-.055a8.321,8.321,0,0,1-.13-2.246" transform="translate(76.133 1.649)" fill="#fef0d7"/>
        <path id="패스_296" data-name="패스 296" d="M108.887,6.3s-6.991,3.349-2,10.924H94.068a2.413,2.413,0,0,1-2.332-2c-.619-3.2,2.294-5.572,2.949-6.118a13.133,13.133,0,0,1,2.441-1.675c-.728.292-6.882,1.129-12.636,4.989-3.75,2.548-4.514,6.044-3.677,7.683a2.215,2.215,0,0,0,2.109,1.144,6.339,6.339,0,0,0,2.151-.453,12.02,12.02,0,0,0,1.6-.728.507.507,0,0,0,.145-.109h.036a7.709,7.709,0,0,1,3.58-1.007,5.621,5.621,0,0,1,2.611.644,11.867,11.867,0,0,0,5.4,1.545,5.116,5.116,0,0,0,4.319-1.91s1.165,9.1-4.953,9.1c-5.1,0-8.775-4.989-11.65-5.645v-.036h-.183a.035.035,0,0,0-.036-.036h-.109a5.764,5.764,0,0,0-.764-.057c-1.274,0-3.2.508-4.262,3.7C79.684,29.6,90.5,32.658,86.639,39.5a3.293,3.293,0,0,1-1.305,1.3c-7.11-4.535-11.243-9.948-11.243-15.761,0-7.15,6.252-13.694,16.607-18.745Zm0-6.3H90.7a6.284,6.284,0,0,0-2.76.638C71.289,8.76,67.795,18.391,67.795,25.041c0,5.492,2.455,13.606,14.154,21.069a6.3,6.3,0,0,0,6.369.237,9.6,9.6,0,0,0,3.809-3.757,11.188,11.188,0,0,0,1.324-8.647,14.613,14.613,0,0,0,4.365.678,10.588,10.588,0,0,0,8.082-3.559,14.165,14.165,0,0,0,3.146-7.929,6.3,6.3,0,0,0,3.1-9.377A4.647,4.647,0,0,1,111.4,12.2a1.762,1.762,0,0,1,.306-.264,6.057,6.057,0,0,0,3.572-6.9A6.442,6.442,0,0,0,108.887,0m0,12.592h0Z" transform="translate(74.485 0.001)" fill="#fef0d7"/>
      </g>
    </g>
    <text id="SUMMER_BREEZE_MUSIC_FESTIVAL" data-name="SUMMER BREEZE MUSIC FESTIVAL" transform="translate(27.825 46.311)" fill="#fef0d7" font-size="3" font-family="Helvetica"><tspan x="0" y="0" letter-spacing="0.279em">SUMMER BREEZE MUSIC FESTIVA</tspan><tspan y="0">L</tspan></text>
    <g id="그룹_851" data-name="그룹 851" transform="translate(0 0)">
      <g id="그룹_850" data-name="그룹 850" clip-path="url(#clip-path)">
        <path id="패스_297" data-name="패스 297" d="M15.539,21.216a2.148,2.148,0,0,0-.749-.139,1.572,1.572,0,0,0-1.02.325,1,1,0,0,0-.4.821.944.944,0,0,0,.628.892c.193.061.386.122.579.187s.39.128.59.187q.62.242.621.7a.728.728,0,0,1-.327.617,1.191,1.191,0,0,1-.722.214A1.637,1.637,0,0,1,14.473,25a1.575,1.575,0,0,1-.275-.073,2.574,2.574,0,0,1-.835-.52v.546a2.886,2.886,0,0,0,.546.3,2.116,2.116,0,0,0,.827.166,1.688,1.688,0,0,0,1.077-.338,1.144,1.144,0,0,0,.458-.949.976.976,0,0,0-.64-.911l-.592-.191c-.2-.063-.39-.128-.588-.2q-.633-.211-.632-.642a.633.633,0,0,1,.279-.51,1.109,1.109,0,0,1,.693-.208,1.518,1.518,0,0,1,.653.149,1.84,1.84,0,0,1,.281.151,3.04,3.04,0,0,1,.283.208V21.44A2.612,2.612,0,0,0,15.539,21.216Z" transform="translate(14.682 23.158)" fill="none" stroke="#fef0d7" stroke-linecap="round" stroke-linejoin="round" stroke-width="3"/>
        <path id="패스_298" data-name="패스 298" d="M15.714,23.8a1.464,1.464,0,0,0,.5,1.179,1.836,1.836,0,0,0,1.24.407,1.727,1.727,0,0,0,1.152-.411,1.49,1.49,0,0,0,.525-1.192V21.11h-.443v2.724a1.064,1.064,0,0,1-.4.879,1.329,1.329,0,0,1-.848.273,1.44,1.44,0,0,1-.907-.277,1.052,1.052,0,0,1-.4-.875V21.11h-.418Z" transform="translate(17.265 23.194)" fill="none" stroke="#fef0d7" stroke-linecap="round" stroke-linejoin="round" stroke-width="3"/>
        <path id="패스_299" data-name="패스 299" d="M18.678,25.314V21.667l1.706,3.648h.183L22.3,21.662v3.652h.38v-4.2H22.16l-1.685,3.48-1.629-3.48h-.554v4.2Z" transform="translate(20.097 23.195)" fill="none" stroke="#fef0d7" stroke-linecap="round" stroke-linejoin="round" stroke-width="3"/>
        <path id="패스_300" data-name="패스 300" d="M21.719,25.314V21.667l1.706,3.648h.183l1.731-3.652v3.652h.38v-4.2H25.2l-1.685,3.48-1.629-3.48h-.554v4.2Z" transform="translate(23.438 23.195)" fill="none" stroke="#fef0d7" stroke-linecap="round" stroke-linejoin="round" stroke-width="3"/>
        <path id="패스_301" data-name="패스 301" d="M24.372,25.317h2.634v-.369H24.8V23.3h2.113v-.369H24.8V21.477h2.193v-.369H24.372Z" transform="translate(26.777 23.191)" fill="none" stroke="#fef0d7" stroke-linecap="round" stroke-linejoin="round" stroke-width="3"/>
        <path id="패스_302" data-name="패스 302" d="M28.745,21.693a.6.6,0,0,1,.239.489.7.7,0,0,1-.071.3.784.784,0,0,1-.185.252.99.99,0,0,1-.432.235,2.512,2.512,0,0,1-.651.071H27V21.479h1.045A1.077,1.077,0,0,1,28.745,21.693Zm-2.168,3.62H27V23.379h.623a1.006,1.006,0,0,1,.69.191,2.012,2.012,0,0,1,.462.865l.279.879h.476L29,23.866a1.051,1.051,0,0,0-.3-.472.446.446,0,0,0-.113-.078,1.479,1.479,0,0,0-.16-.071,1.58,1.58,0,0,0,.739-.42.975.975,0,0,0,.231-.676.892.892,0,0,0-.508-.858,2.063,2.063,0,0,0-.923-.18H26.577Z" transform="translate(29.2 23.194)" fill="none" stroke="#fef0d7" stroke-linecap="round" stroke-linejoin="round" stroke-width="3"/>
        <path id="패스_303" data-name="패스 303" d="M32.648,23.5a.666.666,0,0,1,.3.59.781.781,0,0,1-.294.628,1.2,1.2,0,0,1-.758.231H30.877V23.293h.917A1.5,1.5,0,0,1,32.648,23.5Zm-.157-1.813a.652.652,0,0,1,.183.462.7.7,0,0,1-.256.56,1.122,1.122,0,0,1-.741.216h-.8V21.479h.993A.876.876,0,0,1,32.491,21.683Zm-2.038,3.631h1.62a1.35,1.35,0,0,0,.938-.348,1.128,1.128,0,0,0,.4-.886.993.993,0,0,0-.189-.59,1.162,1.162,0,0,0-.8-.434,1.965,1.965,0,0,0,.25-.134.8.8,0,0,0,.185-.155.957.957,0,0,0,.262-.686.859.859,0,0,0-.369-.749,1.477,1.477,0,0,0-.858-.22H30.453Z" transform="translate(33.458 23.194)" fill="none" stroke="#fef0d7" stroke-linecap="round" stroke-linejoin="round" stroke-width="3"/>
        <path id="패스_304" data-name="패스 304" d="M34.982,21.693a.6.6,0,0,1,.239.489.667.667,0,0,1-.071.3.811.811,0,0,1-.183.252,1.01,1.01,0,0,1-.434.235,2.512,2.512,0,0,1-.651.071h-.644V21.479h1.045A1.069,1.069,0,0,1,34.982,21.693Zm-2.168,3.62h.424V23.379h.623a1.006,1.006,0,0,1,.69.191,2.012,2.012,0,0,1,.462.865l.279.879h.476l-.535-1.448a1.051,1.051,0,0,0-.3-.472.446.446,0,0,0-.113-.078,1.479,1.479,0,0,0-.16-.071,1.6,1.6,0,0,0,.741-.42.985.985,0,0,0,.231-.676.9.9,0,0,0-.508-.858,2.078,2.078,0,0,0-.926-.18H32.814Z" transform="translate(36.052 23.194)" fill="none" stroke="#fef0d7" stroke-linecap="round" stroke-linejoin="round" stroke-width="3"/>
        <path id="패스_305" data-name="패스 305" d="M35.15,25.317h2.634v-.369h-2.21V23.3h2.113v-.369H35.574V21.477h2.193v-.369H35.15Z" transform="translate(38.619 23.191)" fill="none" stroke="#fef0d7" stroke-linecap="round" stroke-linejoin="round" stroke-width="3"/>
        <path id="패스_306" data-name="패스 306" d="M37.343,25.317h2.634v-.369h-2.21V23.3H39.88v-.369H37.767V21.477H39.96v-.369H37.343Z" transform="translate(41.028 23.191)" fill="none" stroke="#fef0d7" stroke-linecap="round" stroke-linejoin="round" stroke-width="3"/>
        <path id="패스_307" data-name="패스 307" d="M39.707,21.48h2.424l-2.665,3.593v.241h3.389v-.369H40.083l2.6-3.482V21.11H39.707Z" transform="translate(43.361 23.195)" fill="none" stroke="#fef0d7" stroke-linecap="round" stroke-linejoin="round" stroke-width="3"/>
        <path id="패스_308" data-name="패스 308" d="M41.927,25.317h2.634v-.369h-2.21V23.3h2.113v-.369H42.351V21.477h2.193v-.369H41.927Z" transform="translate(46.065 23.191)" fill="none" stroke="#fef0d7" stroke-linecap="round" stroke-linejoin="round" stroke-width="3"/>
        <path id="패스_309" data-name="패스 309" d="M46.039,25.314V21.667l1.706,3.648h.183l1.731-3.652v3.652h.38v-4.2h-.518l-1.685,3.48-1.629-3.48h-.554v4.2Z" transform="translate(50.158 23.195)" fill="none" stroke="#fef0d7" stroke-linecap="round" stroke-linejoin="round" stroke-width="3"/>
        <path id="패스_310" data-name="패스 310" d="M48.707,23.8a1.458,1.458,0,0,0,.5,1.179,1.836,1.836,0,0,0,1.24.407,1.718,1.718,0,0,0,1.15-.411,1.49,1.49,0,0,0,.525-1.192V21.11h-.441v2.724a1.064,1.064,0,0,1-.4.879,1.333,1.333,0,0,1-.848.273,1.436,1.436,0,0,1-.907-.277,1.052,1.052,0,0,1-.4-.875V21.11h-.418Z" transform="translate(53.513 23.194)" fill="none" stroke="#fef0d7" stroke-linecap="round" stroke-linejoin="round" stroke-width="3"/>
        <path id="패스_311" data-name="패스 311" d="M53.451,21.216a2.148,2.148,0,0,0-.749-.139,1.572,1.572,0,0,0-1.02.325,1,1,0,0,0-.4.821.944.944,0,0,0,.628.892c.193.061.386.122.579.187s.39.128.59.187q.62.242.621.7a.728.728,0,0,1-.327.617,1.191,1.191,0,0,1-.722.214A1.637,1.637,0,0,1,52.385,25a1.575,1.575,0,0,1-.275-.073,2.574,2.574,0,0,1-.835-.52v.546a2.886,2.886,0,0,0,.546.3,2.116,2.116,0,0,0,.827.166,1.688,1.688,0,0,0,1.077-.338,1.144,1.144,0,0,0,.458-.949.976.976,0,0,0-.64-.911l-.592-.191c-.2-.063-.39-.128-.588-.2q-.633-.211-.632-.642a.633.633,0,0,1,.279-.51,1.109,1.109,0,0,1,.693-.208,1.518,1.518,0,0,1,.653.149,1.84,1.84,0,0,1,.281.151,3.039,3.039,0,0,1,.283.208V21.44A2.612,2.612,0,0,0,53.451,21.216Z" transform="translate(56.335 23.158)" fill="none" stroke="#fef0d7" stroke-linecap="round" stroke-linejoin="round" stroke-width="3"/>
        <rect id="사각형_413" data-name="사각형 413" width="0.418" height="4.204" transform="translate(112.64 44.305)" fill="none" stroke="#fef0d7" stroke-linecap="round" stroke-linejoin="round" stroke-width="3"/>
        <path id="패스_312" data-name="패스 312" d="M57.5,21.178a2.03,2.03,0,0,0-.638-.1,1.85,1.85,0,0,0-1.431.638,2.23,2.23,0,0,0-.569,1.549,2.166,2.166,0,0,0,.611,1.572,1.787,1.787,0,0,0,1.324.583,2.79,2.79,0,0,0,1.3-.386v-.518a2.516,2.516,0,0,1-.642.371,1.66,1.66,0,0,1-.613.122,1.375,1.375,0,0,1-1.083-.52,1.839,1.839,0,0,1-.451-1.245,1.985,1.985,0,0,1,.111-.665A1.76,1.76,0,0,1,55.752,22a1.373,1.373,0,0,1,1.079-.531,1.708,1.708,0,0,1,.81.214,2.032,2.032,0,0,1,.455.332v-.541A2.548,2.548,0,0,0,57.5,21.178Z" transform="translate(60.271 23.158)" fill="none" stroke="#fef0d7" stroke-linecap="round" stroke-linejoin="round" stroke-width="3"/>
        <path id="패스_313" data-name="패스 313" d="M58.89,25.314h.424V23.383h2.1v-.342h-2.1V21.48h2.193V21.11H58.89Z" transform="translate(64.701 23.195)" fill="none" stroke="#fef0d7" stroke-linecap="round" stroke-linejoin="round" stroke-width="3"/>
        <path id="패스_314" data-name="패스 314" d="M61.067,25.317H63.7v-.369h-2.21V23.3H63.6v-.369H61.491V21.477h2.193v-.369H61.067Z" transform="translate(67.093 23.191)" fill="none" stroke="#fef0d7" stroke-linecap="round" stroke-linejoin="round" stroke-width="3"/>
        <path id="패스_315" data-name="패스 315" d="M65.428,21.216a2.148,2.148,0,0,0-.749-.139,1.572,1.572,0,0,0-1.02.325,1,1,0,0,0-.4.821.944.944,0,0,0,.628.892c.193.061.386.122.579.187s.39.128.59.187q.62.242.621.7a.728.728,0,0,1-.327.617,1.191,1.191,0,0,1-.722.214A1.637,1.637,0,0,1,64.362,25a1.575,1.575,0,0,1-.275-.073,2.574,2.574,0,0,1-.835-.52v.546a2.886,2.886,0,0,0,.546.3,2.116,2.116,0,0,0,.827.166,1.688,1.688,0,0,0,1.077-.338,1.144,1.144,0,0,0,.458-.949.976.976,0,0,0-.64-.911l-.592-.191c-.2-.063-.39-.128-.588-.2q-.633-.211-.632-.642a.633.633,0,0,1,.279-.51,1.109,1.109,0,0,1,.693-.208,1.518,1.518,0,0,1,.653.149,1.839,1.839,0,0,1,.281.151,3.044,3.044,0,0,1,.283.208V21.44A2.612,2.612,0,0,0,65.428,21.216Z" transform="translate(69.494 23.158)" fill="none" stroke="#fef0d7" stroke-linecap="round" stroke-linejoin="round" stroke-width="3"/>
        <path id="패스_316" data-name="패스 316" d="M65.541,21.48h1.417v3.834h.418V21.48h1.41V21.11H65.541Z" transform="translate(72.009 23.195)" fill="none" stroke="#fef0d7" stroke-linecap="round" stroke-linejoin="round" stroke-width="3"/>
        <rect id="사각형_414" data-name="사각형 414" width="0.418" height="4.204" transform="translate(142.817 44.305)" fill="none" stroke="#fef0d7" stroke-linecap="round" stroke-linejoin="round" stroke-width="3"/>
        <path id="패스_317" data-name="패스 317" d="M70.83,25.314h.418l1.61-4.2h-.489L71.027,24.8,69.661,21.11h-.479Z" transform="translate(76.009 23.195)" fill="none" stroke="#fef0d7" stroke-linecap="round" stroke-linejoin="round" stroke-width="3"/>
        <path id="패스_318" data-name="패스 318" d="M72.856,23.507l.7-1.893.648,1.893Zm-1.121,1.807H72.2l.527-1.438h1.6l.506,1.438h.491l-1.566-4.2h-.411Z" transform="translate(78.814 23.194)" fill="none" stroke="#fef0d7" stroke-linecap="round" stroke-linejoin="round" stroke-width="3"/>
        <path id="패스_319" data-name="패스 319" d="M74.37,25.314h2.5v-.369H74.794V21.11H74.37Z" transform="translate(81.709 23.195)" fill="none" stroke="#fef0d7" stroke-linecap="round" stroke-linejoin="round" stroke-width="3"/>
        <path id="패스_320" data-name="패스 320" d="M6.405,14a4.023,4.023,0,1,1,4.023-4.023A4.028,4.028,0,0,1,6.405,14" transform="translate(2.617 6.544)" fill="#fef0d7"/>
        <path id="패스_321" data-name="패스 321" d="M8.052,10.751a.875.875,0,1,1-.875.875.876.876,0,0,1,.875-.875m0-6.3a7.171,7.171,0,1,0,7.171,7.171A7.18,7.18,0,0,0,8.052,4.455" transform="translate(0.968 4.896)" fill="#fef0d7"/>
        <path id="패스_322" data-name="패스 322" d="M8.119,17.852a5.321,5.321,0,1,1,5.322-5.322,5.329,5.329,0,0,1-5.322,5.322" transform="translate(3.075 7.923)" fill="#fef0d7"/>
        <path id="패스_323" data-name="패스 323" d="M9.768,12.006A2.173,2.173,0,1,1,7.594,14.18a2.173,2.173,0,0,1,2.174-2.174m0-6.3a8.469,8.469,0,1,0,8.468,8.47A8.48,8.48,0,0,0,9.768,5.71" transform="translate(1.426 6.275)" fill="#fef0d7"/>
        <path id="패스_324" data-name="패스 324" d="M87.315,22.548a5.507,5.507,0,1,1,5.507-5.507,5.513,5.513,0,0,1-5.507,5.507" transform="translate(89.881 12.673)" fill="#fef0d7"/>
        <path id="패스_325" data-name="패스 325" d="M88.963,16.331A2.358,2.358,0,1,1,86.6,18.69a2.358,2.358,0,0,1,2.359-2.359m0-6.3a8.654,8.654,0,1,0,8.655,8.655,8.665,8.665,0,0,0-8.655-8.655" transform="translate(88.233 11.026)" fill="#fef0d7"/>
        <path id="패스_326" data-name="패스 326" d="M88.105,18.533a4.05,4.05,0,1,1,4.05-4.05,4.056,4.056,0,0,1-4.05,4.05" transform="translate(92.35 11.462)" fill="#fef0d7"/>
        <path id="패스_327" data-name="패스 327" d="M89.753,15.228a.9.9,0,1,1-.9.9.9.9,0,0,1,.9-.9m0-6.3a7.2,7.2,0,1,0,7.2,7.2,7.207,7.207,0,0,0-7.2-7.2" transform="translate(90.702 9.814)" fill="#fef0d7"/>
        <path id="패스_328" data-name="패스 328" d="M24.833,25.315A4.818,4.818,0,1,1,29.649,20.5a4.824,4.824,0,0,1-4.816,4.816" transform="translate(21.989 17.228)" fill="#fef0d7"/>
        <path id="패스_329" data-name="패스 329" d="M26.479,20.476a1.67,1.67,0,1,1-1.668,1.668,1.67,1.67,0,0,1,1.668-1.668m0-6.3a7.966,7.966,0,1,0,7.967,7.964,7.974,7.974,0,0,0-7.967-7.964" transform="translate(20.342 15.58)" fill="#fef0d7"/>
        <path id="패스_330" data-name="패스 330" d="M57.563,23.666a5.458,5.458,0,1,1,5.457-5.459,5.465,5.465,0,0,1-5.457,5.459" transform="translate(57.246 14.01)" fill="#fef0d7"/>
        <path id="패스_331" data-name="패스 331" d="M59.209,17.547A2.31,2.31,0,1,1,56.9,19.856a2.309,2.309,0,0,1,2.309-2.309m0-6.3a8.606,8.606,0,1,0,8.6,8.6,8.614,8.614,0,0,0-8.6-8.6" transform="translate(55.598 12.362)" fill="#fef0d7"/>
        <path id="패스_332" data-name="패스 332" d="M28.972,5.992c.655-1.784-3.1-1.71-3.1-1.71S15.354,4.1,20.6,9.56c1.966,2.04,5.862,2.768,8.919,4.407,4.77,2.548,12.088,6.189,12.088,11.977,0,4.26-5.207,8.267-10.013,9.906a37.2,37.2,0,0,1-8.483,1.528H19.65a22.084,22.084,0,0,1-8.265-1.566c-.145-.073-.327-.109-.472-.18A10.532,10.532,0,0,1,5.778,31.3a6.486,6.486,0,0,1-.145-6.009c.837-1.71,1.456-4.623-3.058-5.28H16.229a4.3,4.3,0,0,1,4.078,2.842,4.466,4.466,0,0,1-1.566,5.06c-5.608,4.735.292,7.32,1.82,7.356,3.423.073,7.683.218,9.031-5.57.655-2.732-1.6-4.808-4.844-6.81C19.87,19.9,12.806,17.025,10.038,12.438a7.886,7.886,0,0,1-.4-.766c-1.2-2.33-1.018-4.113-.071-5.461A6.225,6.225,0,0,1,11.86,4.318a16.985,16.985,0,0,1,7.463-1.675H41.571S36.11,6.574,43.1,13.567H33.486c-2.4,0-4.733-1.421-5.1-3.824a6.469,6.469,0,0,1,.583-3.75" transform="translate(2.829 2.905)" fill="#292b2d"/>
        <path id="패스_333" data-name="패스 333" d="M64.606,32.356a5.034,5.034,0,0,1-5.024,5.024H36.788c-.145.038-.218.038-.254,0l-14.019.038a11.119,11.119,0,0,0,2.441-1.969c2-2.073,4-5.534,1.347-9.356-.218-.292-.4-.583-.583-.837-1.857-3.2-1.091-5.572,0-7.939a20.654,20.654,0,0,0,1.966-4.7c.982-4.332-2.73-8.046-2.949-8.229a5.113,5.113,0,0,0-2.332-1.748h30a5.843,5.843,0,0,1,5.826,5.828,5.941,5.941,0,0,1-2.657,4.877,46.441,46.441,0,0,1-14.6,6.191,32.758,32.758,0,0,1,4.951.109c.073,0,.073.036.073.036,11.8,1.312,18.6,7.975,18.6,12.672m-19.48-8.775a6.166,6.166,0,0,0-5.207-2.149c-4.258.583-3.532,4.661-.728,6.554,3.1,2.149,6.955,4.26,4.879,7.755,6.372-.437,5.1-7.354,1.056-12.16m-8.155-4.006a16.7,16.7,0,0,0,4.042-2.294c6.445-6.262,5.316-9.939,3.459-11.906-1.165-1.238-4.042-1.566-4.989.728-.437,1.056-.183,1.82.327,4.733a8.806,8.806,0,0,1-.619,4.225,23.819,23.819,0,0,1-2.22,4.514" transform="translate(24.617 2.905)" fill="#292b2d"/>
        <path id="패스_334" data-name="패스 334" d="M92.833,37.468H78.887a6.577,6.577,0,0,1-6.262-4.733c-1.347-4.59-1.093-11.18,2.185-15.113a21.9,21.9,0,0,0,4.441-11.5,1.235,1.235,0,0,0-1.964-1.093c-12.053,8.449-6.7,20.137-6.7,20.137H65.269a6.272,6.272,0,0,1-6.08-4.661A52.868,52.868,0,0,1,58.1,10.815c-.218-3.969-2.766-6.3-4.479-6.554-1.31-.183-1.419.982-1.456,1.492-.145,3.9.183,12.38,5.427,17.625a10.683,10.683,0,0,1,3.459,8.7,5.871,5.871,0,0,1-5.864,5.354H43.241s4.659-5.171,1.82-11.251c-2.84-6.118-3.349-7.247-1.31-13.4a10.675,10.675,0,0,0-1.53-10.051h.218l-.218-.036H54.274c6.844.292,5.862,6.955,7.318,9.795.947,1.784.837-9.795,12.672-9.795H91.12s-1.82,0-3.9,4.989c-2.111,4.953,6.3,11.142,2.4,18.643a7.83,7.83,0,0,0,3.2,11.142" transform="translate(46.387 2.962)" fill="#292b2d"/>
        <path id="패스_335" data-name="패스 335" d="M73.789,21.388c0-7.15,6.252-13.694,16.607-18.745H67.258a.035.035,0,0,0,.036.036c.693.218,6.227,2.294,3.242,8.265A12.56,12.56,0,0,1,69.7,12.4c-3.352,5.024-1.238,9.138.837,12.233a22.323,22.323,0,0,1,2.439,3.824c.982,3.022-3.1,7.828-5.425,8.957H84.3a1.28,1.28,0,0,0,.655-.218c.027-.015.05-.034.078-.048-7.11-4.535-11.243-9.948-11.243-15.761" transform="translate(73.895 2.905)" fill="#292b2d"/>
        <path id="패스_336" data-name="패스 336" d="M82.918,35.85c3.859-6.846-6.955-9.9-5.826-13.253,1.312-3.933,3.933-3.788,5.024-3.641h.109s.038,0,.038.036h.18v.036c2.877.657,6.554,5.645,11.652,5.645,6.118,0,4.953-9.1,4.953-9.1s-2.621,4.042-9.723.365a6.436,6.436,0,0,0-6.189.363H83.1a.521.521,0,0,1-.147.109,11.963,11.963,0,0,1-1.6.728c-1.456.546-3.423.875-4.26-.69-.837-1.639-.073-5.135,3.677-7.683,5.755-3.859,11.908-4.7,12.636-4.989a13.054,13.054,0,0,0-2.441,1.675c-.655.546-3.568,2.913-2.949,6.118a2.411,2.411,0,0,0,2.33,2h12.817c-4.986-7.574,2-10.924,2-10.924H86.977C76.62,7.695,70.37,14.238,70.37,21.388c0,5.813,4.132,11.226,11.243,15.761a3.293,3.293,0,0,0,1.305-1.3" transform="translate(77.314 2.905)" fill="#5a9dff"/>
        <path id="패스_337" data-name="패스 337" d="M15.137,21.714v.541a3.072,3.072,0,0,0-.283-.21,1.741,1.741,0,0,0-.281-.149,1.521,1.521,0,0,0-.653-.151,1.1,1.1,0,0,0-.693.21.632.632,0,0,0-.279.508q0,.431.634.644c.2.069.39.134.588.2s.392.126.59.189a.977.977,0,0,1,.64.913,1.147,1.147,0,0,1-.455.949,1.7,1.7,0,0,1-1.077.338,2.126,2.126,0,0,1-.829-.166,3.225,3.225,0,0,1-.546-.3V24.68a2.525,2.525,0,0,0,.837.52,1.419,1.419,0,0,0,.275.076,1.6,1.6,0,0,0,.264.021,1.192,1.192,0,0,0,.726-.216.719.719,0,0,0,.325-.615q0-.46-.619-.7c-.2-.061-.4-.124-.592-.187s-.384-.128-.579-.189a.942.942,0,0,1-.628-.89,1.009,1.009,0,0,1,.4-.821,1.577,1.577,0,0,1,1.02-.327,2.1,2.1,0,0,1,.749.141,2.475,2.475,0,0,1,.468.225" transform="translate(13.726 23.457)" fill="#292b2d"/>
        <path id="패스_338" data-name="패스 338" d="M14.845,21.383h.418v2.724a1.049,1.049,0,0,0,.4.875,1.441,1.441,0,0,0,.907.279,1.33,1.33,0,0,0,.848-.275,1.063,1.063,0,0,0,.4-.879V21.383h.445v2.67a1.5,1.5,0,0,1-.525,1.192,1.731,1.731,0,0,1-1.154.413,1.834,1.834,0,0,1-1.24-.409,1.46,1.46,0,0,1-.5-1.179Z" transform="translate(16.31 23.494)" fill="#292b2d"/>
        <path id="패스_339" data-name="패스 339" d="M17.423,25.587v-4.2h.552l1.629,3.48,1.685-3.48h.52v4.2h-.382V21.935L19.7,25.587h-.183l-1.7-3.648v3.648Z" transform="translate(19.142 23.494)" fill="#292b2d"/>
        <path id="패스_340" data-name="패스 340" d="M20.464,25.587v-4.2h.552l1.629,3.48,1.685-3.48h.52v4.2h-.382V21.935l-1.731,3.652h-.183l-1.7-3.648v3.648Z" transform="translate(22.483 23.494)" fill="#292b2d"/>
        <path id="패스_341" data-name="패스 341" d="M23.5,21.38H26.12v.369H23.927V23.2h2.111v.369H23.927v1.647h2.21v.369H23.5Z" transform="translate(25.82 23.491)" fill="#292b2d"/>
        <path id="패스_342" data-name="패스 342" d="M25.706,21.383H27.1a2.04,2.04,0,0,1,.921.183.887.887,0,0,1,.512.856.985.985,0,0,1-.233.678,1.56,1.56,0,0,1-.737.418c.059.025.113.048.159.071a.535.535,0,0,1,.113.078,1.079,1.079,0,0,1,.294.472l.535,1.448h-.476l-.277-.879a2.022,2.022,0,0,0-.464-.863,1.006,1.006,0,0,0-.69-.193h-.621v1.935h-.426Zm1.471.369H26.132v1.566h.644a2.523,2.523,0,0,0,.651-.071,1,1,0,0,0,.43-.233.817.817,0,0,0,.185-.254.663.663,0,0,0,.073-.3.606.606,0,0,0-.241-.489,1.071,1.071,0,0,0-.7-.214" transform="translate(28.243 23.494)" fill="#292b2d"/>
        <path id="패스_343" data-name="패스 343" d="M29.583,21.383h1.444a1.47,1.47,0,0,1,.856.22.863.863,0,0,1,.371.749.974.974,0,0,1-.449.844,2.229,2.229,0,0,1-.248.134,1.168,1.168,0,0,1,.8.434.992.992,0,0,1,.185.588,1.126,1.126,0,0,1-.4.886,1.348,1.348,0,0,1-.94.348H29.583ZM31,21.752h-.991V23.2h.8a1.124,1.124,0,0,0,.743-.218.7.7,0,0,0,.258-.56.645.645,0,0,0-.185-.462.878.878,0,0,0-.623-.2m-.073,1.813h-.917v1.652h1.02a1.2,1.2,0,0,0,.756-.231.778.778,0,0,0,.294-.628.671.671,0,0,0-.3-.59,1.51,1.51,0,0,0-.856-.2" transform="translate(32.502 23.494)" fill="#292b2d"/>
        <path id="패스_344" data-name="패스 344" d="M31.944,21.383h1.389a2.04,2.04,0,0,1,.921.183.886.886,0,0,1,.51.856.994.994,0,0,1-.231.678,1.579,1.579,0,0,1-.739.418c.059.025.113.048.162.071a.518.518,0,0,1,.111.078,1.042,1.042,0,0,1,.294.472l.537,1.448H34.42l-.277-.879a2.024,2.024,0,0,0-.462-.863,1.008,1.008,0,0,0-.693-.193h-.621v1.935h-.424Zm1.469.369H32.368v1.566h.644a2.523,2.523,0,0,0,.651-.071,1.009,1.009,0,0,0,.432-.233.852.852,0,0,0,.185-.254.661.661,0,0,0,.071-.3.6.6,0,0,0-.239-.489,1.077,1.077,0,0,0-.7-.214" transform="translate(35.096 23.494)" fill="#292b2d"/>
        <path id="패스_345" data-name="패스 345" d="M34.28,21.38H36.9v.369H34.7V23.2h2.115v.369H34.7v1.647h2.21v.369H34.28Z" transform="translate(37.663 23.491)" fill="#292b2d"/>
        <path id="패스_346" data-name="패스 346" d="M36.472,21.38H39.09v.369H36.9V23.2H39.01v.369H36.9v1.647h2.21v.369H36.472Z" transform="translate(40.072 23.491)" fill="#292b2d"/>
        <path id="패스_347" data-name="패스 347" d="M38.836,21.383h2.978v.353l-2.6,3.482h2.774v.369H38.6v-.241l2.663-3.593H38.836Z" transform="translate(42.406 23.494)" fill="#292b2d"/>
        <path id="패스_348" data-name="패스 348" d="M41.057,21.38h2.615v.369H41.479V23.2h2.115v.369H41.479v1.647h2.21v.369H41.057Z" transform="translate(45.109 23.491)" fill="#292b2d"/>
        <path id="패스_349" data-name="패스 349" d="M44.783,25.587v-4.2h.552l1.631,3.48,1.685-3.48h.518v4.2h-.38V21.935l-1.734,3.652h-.18l-1.706-3.648v3.648Z" transform="translate(49.202 23.494)" fill="#292b2d"/>
        <path id="패스_350" data-name="패스 350" d="M47.837,21.383h.418v2.724a1.049,1.049,0,0,0,.4.875,1.441,1.441,0,0,0,.907.279,1.33,1.33,0,0,0,.848-.275,1.063,1.063,0,0,0,.4-.879V21.383h.445v2.67a1.5,1.5,0,0,1-.525,1.192,1.731,1.731,0,0,1-1.154.413,1.834,1.834,0,0,1-1.24-.409,1.46,1.46,0,0,1-.5-1.179Z" transform="translate(52.558 23.494)" fill="#292b2d"/>
        <path id="패스_351" data-name="패스 351" d="M53.049,21.714v.541a3.072,3.072,0,0,0-.283-.21,1.675,1.675,0,0,0-.283-.149,1.505,1.505,0,0,0-.651-.151,1.1,1.1,0,0,0-.693.21.626.626,0,0,0-.279.508q0,.431.632.644c.2.069.392.134.588.2l.592.189a.977.977,0,0,1,.64.913,1.144,1.144,0,0,1-.458.949,1.7,1.7,0,0,1-1.077.338,2.123,2.123,0,0,1-.827-.166,3.146,3.146,0,0,1-.546-.3V24.68a2.525,2.525,0,0,0,.837.52,1.4,1.4,0,0,0,.273.076,1.63,1.63,0,0,0,.267.021,1.185,1.185,0,0,0,.724-.216.715.715,0,0,0,.325-.615c0-.306-.2-.541-.619-.7-.2-.061-.4-.124-.59-.187s-.386-.128-.581-.189a.942.942,0,0,1-.628-.89,1,1,0,0,1,.4-.821,1.573,1.573,0,0,1,1.02-.327,2.1,2.1,0,0,1,.749.141,2.6,2.6,0,0,1,.468.225" transform="translate(55.379 23.457)" fill="#292b2d"/>
        <rect id="사각형_415" data-name="사각형 415" width="0.418" height="4.204" transform="translate(110.815 44.876)" fill="#292b2d"/>
        <path id="패스_352" data-name="패스 352" d="M57.225,21.751v.541a1.985,1.985,0,0,0-.455-.332,1.708,1.708,0,0,0-.81-.214,1.37,1.37,0,0,0-1.077.529,1.791,1.791,0,0,0-.334.575,1.934,1.934,0,0,0-.111.665,1.828,1.828,0,0,0,.451,1.245,1.368,1.368,0,0,0,1.081.52,1.67,1.67,0,0,0,.615-.122,2.542,2.542,0,0,0,.64-.371v.518a2.8,2.8,0,0,1-1.3.386,1.79,1.79,0,0,1-1.324-.583,2.174,2.174,0,0,1-.611-1.572,2.219,2.219,0,0,1,.571-1.549,1.846,1.846,0,0,1,1.429-.638,2.043,2.043,0,0,1,.64.1,2.535,2.535,0,0,1,.6.3" transform="translate(59.314 23.458)" fill="#292b2d"/>
        <path id="패스_353" data-name="패스 353" d="M58.019,21.383h2.617v.369H58.443v1.561h2.1v.342h-2.1v1.931h-.424Z" transform="translate(63.745 23.494)" fill="#292b2d"/>
        <path id="패스_354" data-name="패스 354" d="M60.2,21.38h2.619v.369H60.622V23.2h2.111v.369H60.622v1.647h2.21v.369H60.2Z" transform="translate(66.136 23.491)" fill="#292b2d"/>
        <path id="패스_355" data-name="패스 355" d="M65.025,21.714v.541a3.071,3.071,0,0,0-.283-.21,1.742,1.742,0,0,0-.281-.149,1.521,1.521,0,0,0-.653-.151,1.1,1.1,0,0,0-.693.21.632.632,0,0,0-.279.508c0,.288.212.5.634.644.2.069.39.134.588.2s.392.126.59.189a.977.977,0,0,1,.64.913,1.147,1.147,0,0,1-.455.949,1.7,1.7,0,0,1-1.077.338,2.126,2.126,0,0,1-.829-.166,3.224,3.224,0,0,1-.546-.3V24.68a2.525,2.525,0,0,0,.837.52,1.419,1.419,0,0,0,.275.076,1.6,1.6,0,0,0,.264.021,1.192,1.192,0,0,0,.726-.216.719.719,0,0,0,.325-.615q0-.46-.619-.7c-.2-.061-.4-.124-.592-.187s-.384-.128-.579-.189a.942.942,0,0,1-.628-.89,1.009,1.009,0,0,1,.4-.821,1.577,1.577,0,0,1,1.02-.327,2.1,2.1,0,0,1,.749.141,2.475,2.475,0,0,1,.468.225" transform="translate(68.537 23.457)" fill="#292b2d"/>
        <path id="패스_356" data-name="패스 356" d="M64.671,21.383h3.247v.369h-1.41v3.834h-.418V21.752H64.671Z" transform="translate(71.052 23.494)" fill="#292b2d"/>
        <rect id="사각형_416" data-name="사각형 416" width="0.418" height="4.204" transform="translate(140.991 44.876)" fill="#292b2d"/>
        <path id="패스_357" data-name="패스 357" d="M68.312,21.383h.478l1.366,3.7,1.343-3.7h.487l-1.612,4.2h-.418Z" transform="translate(75.053 23.494)" fill="#292b2d"/>
        <path id="패스_358" data-name="패스 358" d="M72.475,21.383h.413l1.566,4.2h-.493l-.5-1.438h-1.6l-.527,1.438h-.466Zm.865,2.4-.653-1.893-.7,1.893Z" transform="translate(77.858 23.494)" fill="#292b2d"/>
        <path id="패스_359" data-name="패스 359" d="M73.5,21.383h.424v3.834H76v.369H73.5Z" transform="translate(80.753 23.494)" fill="#292b2d"/>
        <path id="패스_360" data-name="패스 360" d="M5.206,7.973A.875.875,0,1,1,4.331,7.1a.876.876,0,0,1,.875.875" transform="translate(3.797 7.799)" fill="#5a9dff"/>
        <path id="패스_361" data-name="패스 361" d="M8.219,10.526A2.173,2.173,0,1,1,6.045,8.352a2.175,2.175,0,0,1,2.174,2.174" transform="translate(4.255 9.177)" fill="#5a9dff"/>
        <path id="패스_362" data-name="패스 362" d="M87.6,15.037a2.358,2.358,0,1,1-2.359-2.359A2.358,2.358,0,0,1,87.6,15.037" transform="translate(91.062 13.93)" fill="#5a9dff"/>
        <path id="패스_363" data-name="패스 363" d="M86.935,12.477a.9.9,0,1,1-.9-.9.9.9,0,0,1,.9.9" transform="translate(93.531 12.718)" fill="#5a9dff"/>
        <path id="패스_364" data-name="패스 364" d="M24.428,18.491a1.67,1.67,0,1,1-1.668-1.668,1.669,1.669,0,0,1,1.668,1.668" transform="translate(23.17 18.484)" fill="#5a9dff"/>
        <path id="패스_365" data-name="패스 365" d="M57.8,16.2A2.31,2.31,0,1,1,55.49,13.9,2.309,2.309,0,0,1,57.8,16.2" transform="translate(58.427 15.267)" fill="#5a9dff"/>
      </g>
    </g>
    <g id="그룹_853" data-name="그룹 853" transform="translate(96.79 19.281)">
      <g id="그룹_852" data-name="그룹 852" clip-path="url(#clip-path-3)">
        <path id="패스_366" data-name="패스 366" d="M92.833,37.468H78.887a6.577,6.577,0,0,1-6.262-4.733c-1.347-4.59-1.093-11.18,2.185-15.113a21.9,21.9,0,0,0,4.441-11.5,1.235,1.235,0,0,0-1.964-1.093c-12.053,8.449-6.7,20.137-6.7,20.137H65.269a6.272,6.272,0,0,1-6.08-4.661A52.868,52.868,0,0,1,58.1,10.815c-.218-3.969-2.766-6.3-4.479-6.554-1.31-.183-1.419.982-1.456,1.492-.145,3.9.183,12.38,5.427,17.625a10.683,10.683,0,0,1,3.459,8.7,5.871,5.871,0,0,1-5.864,5.354H43.241s4.659-5.171,1.82-11.251c-2.84-6.118-3.349-7.247-1.31-13.4a10.675,10.675,0,0,0-1.53-10.051h.218l-.218-.036H54.274c6.844.292,5.862,6.955,7.318,9.795.947,1.784.837-9.795,12.672-9.795H91.12s-1.82,0-3.9,4.989c-2.111,4.953,6.3,11.142,2.4,18.643a7.83,7.83,0,0,0,3.2,11.142" transform="translate(-50.403 -16.32)" fill="#5a9dff"/>
      </g>
    </g>
    <g id="그룹_855" data-name="그룹 855" transform="translate(23.61 11.883)">
      <g id="그룹_854" data-name="그룹 854" clip-path="url(#clip-path-4)">
        <path id="패스_368" data-name="패스 368" d="M64.606,32.347a5.034,5.034,0,0,1-5.024,5.024H36.788c-.145.038-.218.038-.254,0l-14.019.038a11.119,11.119,0,0,0,2.441-1.969c2-2.073,4-5.534,1.347-9.356-.218-.292-.4-.583-.583-.837-1.857-3.2-1.091-5.572,0-7.939a20.654,20.654,0,0,0,1.966-4.7c.982-4.332-2.73-8.046-2.949-8.229a5.113,5.113,0,0,0-2.332-1.748h30a5.843,5.843,0,0,1,5.826,5.828,5.941,5.941,0,0,1-2.657,4.877,46.441,46.441,0,0,1-14.6,6.191,32.757,32.757,0,0,1,4.951.109c.073,0,.073.036.073.036,11.8,1.312,18.6,7.975,18.6,12.672m-19.48-8.775a6.166,6.166,0,0,0-5.207-2.149c-4.258.583-3.532,4.661-.728,6.554,3.1,2.149,6.955,4.26,4.879,7.755,6.372-.437,5.1-7.354,1.056-12.16m-8.155-4.006a16.7,16.7,0,0,0,4.042-2.294c6.445-6.262,5.316-9.939,3.459-11.906-1.165-1.238-4.042-1.566-4.989.728-.437,1.056-.183,1.82.327,4.733a8.806,8.806,0,0,1-.619,4.225,23.819,23.819,0,0,1-2.22,4.514" transform="translate(1.008 -8.989)" fill="#5a9dff"/>
      </g>
    </g>
    <g id="그룹_857" data-name="그룹 857" transform="translate(0 0)">
      <g id="그룹_856" data-name="그룹 856" clip-path="url(#clip-path)">
        <path id="패스_370" data-name="패스 370" d="M14.859,5.78a4.812,4.812,0,0,0,.044.481,4.616,4.616,0,0,0,3.864,3.681A17.689,17.689,0,0,0,14.859,5.78" transform="translate(16.325 6.351)" fill="#5a9dff"/>
        <path id="패스_371" data-name="패스 371" d="M17.345,9.157a4.379,4.379,0,0,1-1.459-2.529c-.069-.917.592-1.53,1.519-1.941a37.682,37.682,0,0,0-6.447-1.692,12.288,12.288,0,0,0-2.353.919A6.2,6.2,0,0,0,6.312,5.807a4.13,4.13,0,0,0-.768,2.355,6.561,6.561,0,0,0,.842,3.087,7.449,7.449,0,0,0,.4.766C9.553,16.6,16.617,19.48,21.5,22.464c2.84,1.754,4.921,3.568,4.955,5.826a4.078,4.078,0,0,1-.084.751c2.951-2.73,4.674-6.023,4.674-9.568a11.075,11.075,0,0,0-.63-3.633c-1.44-.848-2.881-1.6-4.147-2.279-3.058-1.637-6.953-2.367-8.919-4.405" transform="translate(6.091 3.292)" fill="#5a9dff"/>
        <path id="패스_372" data-name="패스 372" d="M16.325,22.6c-.015-1.049.613-2.321,2.369-3.8A4.679,4.679,0,0,0,20.5,15.442a4.692,4.692,0,0,0-.243-1.692,4.3,4.3,0,0,0-4.078-2.84H2.625c2.745.428,3.545,1.706,3.551,3.022a5.223,5.223,0,0,1-.59,2.258,6.873,6.873,0,0,0-.663,3.035,6.113,6.113,0,0,0,.808,2.955,10.517,10.517,0,0,0,5.135,4.332c.145.073.327.109.472.183q.988.4,2.011.693a38.4,38.4,0,0,0,6.16-1.438c-1.333-.445-3.173-1.576-3.184-3.352" transform="translate(2.884 11.989)" fill="#5a9dff"/>
      </g>
    </g>
  </g>
</svg>
