<?xml version="1.0" encoding="utf-8"?>
<!-- Generator: Adobe Illustrator 22.1.0, SVG Export Plug-In . SVG Version: 6.00 Build 0)  -->
<svg version="1.1" id="Layer_1" xmlns="http://www.w3.org/2000/svg" xmlns:xlink="http://www.w3.org/1999/xlink" x="0px" y="0px"
	 viewBox="0 0 75.6 72.8" style="enable-background:new 0 0 75.6 72.8;" xml:space="preserve">
<style type="text/css">
	.st0{clip-path:url(#SVGID_2_);fill:url(#SVGID_3_);}
	.st1{opacity:0.87;clip-path:url(#SVGID_2_);fill:url(#SVGID_4_);}
	.st2{clip-path:url(#SVGID_2_);fill:url(#SVGID_5_);}
	.st3{clip-path:url(#SVGID_2_);fill:url(#SVGID_6_);}
	.st4{fill:url(#SVGID_7_);}
</style>
<g>
	<defs>
		<ellipse id="SVGID_1_" cx="37.7" cy="36.4" rx="36.7" ry="36.4"/>
	</defs>
	<clipPath id="SVGID_2_">
		<use xlink:href="#SVGID_1_"  style="overflow:visible;"/>
	</clipPath>
	<linearGradient id="SVGID_3_" gradientUnits="userSpaceOnUse" x1="34.9865" y1="70.9115" x2="33.8336" y2="6.6372">
		<stop  offset="0.1701" style="stop-color:#EFADFF"/>
		<stop  offset="0.5354" style="stop-color:#2AD8F7"/>
		<stop  offset="1" style="stop-color:#2A60F7"/>
	</linearGradient>
	<path class="st0" d="M94.7,73.5H-25.9c-1.8,0-3.3-1.5-3.3-3.3V3c0-1.8,1.5-3.3,3.3-3.3H94.7c1.8,0,3.3,1.5,3.3,3.3v67.3
		C97.9,72.1,96.4,73.5,94.7,73.5z"/>
	<linearGradient id="SVGID_4_" gradientUnits="userSpaceOnUse" x1="14.6663" y1="183.88" x2="14.0623" y2="90.861">
		<stop  offset="1.282051e-02" style="stop-color:#2E8DE9"/>
		<stop  offset="0.1256" style="stop-color:#61D8F8"/>
		<stop  offset="0.4499" style="stop-color:#FEFFFF"/>
		<stop  offset="0.7145" style="stop-color:#FFB9F9"/>
		<stop  offset="0.8231" style="stop-color:#61D8F8"/>
		<stop  offset="1" style="stop-color:#2E8DE9"/>
	</linearGradient>
	<path class="st1" d="M21.8,91.2c0.9,0,1.8,0,2.7,0c-3.5,0.7-6.2,1.8-8.6,3c-2.2,1.1-4.8,1.6-8.3,1.5c-1.4,0-2.8,0-4.2,0
		c-4.1,0-7,0.7-8.8,2.2c-1.8,1.4-2,2.8,0.6,4.1c2,1,4.7,1.6,7.8,1.9c1.8,0.2,3.6,0.3,5.5,0.1c3-0.3,5.4-1,7.5-1.8
		c4.3-1.7,9.2-2.9,14.9-3.7c1.2-0.2,2.5-0.4,3.3-0.7c5-2,3.5-3.9-0.3-5.8c-0.6-0.3-1.5-0.5-2.3-0.7c2.1,0,4.2,0,6.3,0
		c-0.7,1.4-0.8,2.7,0.9,4c0.3,0.2,0.7,0.5,1.2,0.7c2.3,0.7,4.6,0.5,6.9-0.3c1.5-0.5,3.1-1.1,4.6-1.6c2.8-0.9,6.1-1.5,9.7-1.7
		c1.9-0.1,3.8-0.3,4.9-1c1.9,0,3.7,0,5.6,0c-0.2,0.9-1.6,2.1-4.8,2.4c-1.6,0.1-3.2,0.2-4.7,0.4c-3.6,0.3-7.3,0.6-9.5,2
		c-1,0.6-1.9,1.3-1.4,2c0.5,0.8,1.8,1.5,3.7,1.8c2.2,0.4,2.7,1.1,2.9,1.9c0.3,1.1,1.1,2.1,2.4,3c0.8,0.5,1.9,0.9,3.5,1
		c2,0.1,3.9,0,5.8-0.2c2.8-0.4,5.4-1.1,8.5-1.3c0,4.1,0,8.1,0,12.2c-2.4,0.1-4.2,0.6-5.9,1.3c-3,1.1-5,2.5-7.3,3.8
		c-2.7,1.6-6.2,2.6-11.1,2.8c-4.6,0.2-8.5,1-11.6,2.4c-3.7,1.6-5.6,3.5-5.1,5.7c0.3,1.2,0.1,2.4-1,3.5c-0.7,0.7-0.2,1.3,0.8,1.9
		c1.8,1.1,4.5,1.9,7.3,2.6c2.1,0.5,4.2,1,6.8,1c3.7,0,6.9-0.5,9.8-1.3c2.3-0.7,4.4-1.4,6.8-2c3.4-0.8,7-1,10.5,0c0,0.4,0,0.8,0,1.2
		c-2.1-0.3-4.2-0.4-6.4-0.1c-5.9,0.6-9.2,2.3-10.5,4.7c-0.5,0.9-0.9,1.8-2.7,2.4c-2.8,1-5,2.1-5.6,3.6c-0.8,0-1.6,0-2.4,0
		c0.1-0.2,0.2-0.3,0.4-0.5c2-1.3,2.5-2.7,1.5-4.2c-0.5-0.7-1.7-1.2-3.2-1.5c-2.3-0.6-4.7-0.7-7.4-0.6c-2.7,0.1-5.5,0-8.3-0.1
		c-2.5-0.1-4.4-0.7-6.1-1.4c-2.3-1-4.8-1.9-8.2-2.3c-3.3-0.4-6.6-0.4-10-0.1c-4.5,0.5-7.3,1.5-8.6,3.3c-0.6,0.9-1.9,1.7-4.3,2.1
		c-2.6,0.5-5.2,1-7.8,1.4c-4.6,0.8-8.2,1.9-9.3,4c-2,0-4,0-6.1,0c0.4-0.4,0.8-0.9,1.3-1.3c1.6-1.4,1.4-2.8-0.5-4.1
		c-2-1.4-4.9-2.4-8.4-3.1c-3.4-0.6-6.1-1.5-7.8-2.8c-0.1-0.1-0.2-0.1-0.3-0.2c-1.7-0.9-3.7-1.7-6.8-1.5c0-0.3,0-0.6,0-0.9
		c1.4-0.5,3-1,4.1-1.6c2.4-1.2,3.6-2.8,4.4-4.3c0.9-1.6,2.3-3.1,4.7-4.5c2.7-1.6,4.3-3.3,1.5-5.2c-2.4-1.7-5.8-2.7-11-2.6
		c-1.3,0-2.5,0.2-3.8,0.2c0-0.7,0-1.4,0-2.1c0.9-0.1,1.8-0.1,2.6-0.3c3.1-0.5,4.2-1.6,4.4-2.8c0.1-0.4,0.2-1,0.8-1.3
		c1-0.6,2.3-1.1,3.7-1.5c4.4-1.4,7.6-3,7.9-5.3c0.1-1.1,0.1-2.2-1.4-3.2c-1.1-0.7-2.5-1.5-4-2.1c-3-1.3-6.1-2.5-8.5-3.9
		c-1.2-0.8-3-1.3-5.6-0.9c0-1.1,0-2.2,0-3.4c2.2,0,4.4,0,6.5,0c-1.1,1.1-1,2.2,0.5,3.2c2.2,1.5,4.9,2.9,8.7,3.9
		c3,0.8,5.9,1.6,7.9,2.9c1.6,1,2.3,2.1,3.3,3.2c0.6,0.7,1.3,1.5,2.6,2c2.5,1,5.7,0.9,8.9,0.5c1.7-0.2,3-0.6,3.7-1.3
		c1.2-1,1.2-2.1,0.1-3.1c-1.6-1.5-2.1-3-1.4-4.6c0.5-1.1,0.2-2.2-1.1-3.3c-1.5-1.3-3.7-2.2-7.4-2.4C-18.7,92-20.3,92-22,92
		c-2.6-0.1-5.1-0.2-7.4-0.8c6.6,0,13.2,0,19.8,0c0.5,0.1,1.1,0.2,1.6,0.3c3.8,0.6,7.3,1.4,11.3,1.7c2.2,0.2,4.5,0.3,6.7,0
		c2.1-0.3,4.2-0.5,6.2-0.9C18.2,92,20,91.6,21.8,91.2z M-14.2,122.3c-1.3,0.1-2.7,0-3.9,0.2c-2.1,0.3-4.1,0.7-6.2,1
		c-5.1,0.8-8.1,2.2-9.5,4.3c-1,1.4-2.2,2.7-4.5,3.9c-1.2,0.6-1.9,1.4-1.6,2.3c0.4,1.1,1.5,2.1,3.7,2.9c0.9,0.3,2,0.6,2.7,0.9
		c1.8,0.9,3.4,1.8,5,2.7c1.3,0.7,2.8,1.4,5.2,1.4c2.9,0,5.4-0.3,7.6-1.1c2.2-0.8,4.3-1.6,6.8-2.3c4.9-1.3,10.2-2,16-2.3
		C10,136,13,136,16,135.9c2.6-0.1,5.1-0.4,7.2-1c1.4-0.4,2.9-0.8,4.3-1.2c1.1-0.3,2.3-0.6,3.2-1c2.8-1.2,4.6-2.6,6-4.1
		c1-1.1,1.8-2.2,1-3.3c-0.5-0.7-0.8-1.5-2.3-2.1c-1.8-0.7-4-1-6.3-1.2c-4.1-0.2-8,0-11.8,0.6c-2.9,0.5-5.8,1-8.8,1.2
		c-3.8,0.4-7.7,0.1-11.4-0.5C-6.6,122.9-10.2,122.2-14.2,122.3z M-16.1,108.1c-7.7,0-13.4,0.5-18.2,2.1c-2.3,0.7-4.1,1.6-3.8,2.9
		c0.3,0.9,0.8,1.8,1.3,2.7c0.4,0.7,1,1.4,2.6,1.8c1.8,0.5,3.8,0.9,5.8,1.2c2.4,0.4,4.7,0,7-0.3c1.9-0.2,3.7-0.6,5.6-0.7
		c3.4-0.2,6.6,0.1,9.7,0.7c4.9,0.9,9.8,1.8,14.7,2.7c3.4,0.6,7,0.7,10.5,0c3.5-0.7,5.8-1.7,6.9-3.2c0.9-1.1,1.3-2.2,0.3-3.4
		c-1.8-2-4.2-2.8-9.7-3c-2.2-0.1-4.5,0-6.8,0c-5.1,0.1-9.9-0.2-13.8-1.6C-7.8,108.6-12.5,108.1-16.1,108.1z M56.8,109.5
		c0.4-2.5-1.7-4.6-5.7-6.4c-3.7-1.7-8.4-2.7-14-2.9c-1.4,0-2.9,0-4.1,0.3c-3.9,0.8-6.3,2.1-6.7,4c-0.3,1.8,0.6,3.5,2.2,5.1
		c1,1,2.2,2,3.1,3c1,1.1,1.5,2.2,2.5,3.3c1.2,1.2,2.7,2.3,4.1,3.5c1.5,1.3,3.8,2.3,6.9,3.1c2,0.5,4.2,0.7,6.4,0.4
		c3.3-0.4,6-1.1,7.2-2.5c1.3-1.4,2-2.7-0.2-4.1c-1.3-0.8-1.7-1.7-1.6-2.7C56.9,112.1,56.8,110.8,56.8,109.5z M61.9,112.4
		c0.3,0.4,0.3,0.9,0.8,1.3c1.2,1,1.9,2.1,5.1,2.4c1.8,0.2,4.7-0.1,5.8-0.6c1.2-0.7,1.8-1.2,0.2-2.1c-1.4-0.8-1.9-1.7-1.7-2.7
		c0.2-0.9-0.3-1.7-1.9-2.4c-1.8-0.8-4.3-0.8-5.7,0.2C62.6,109.6,62.4,111,61.9,112.4z M23.3,137.8c0.1,0.8,1,1.4,2.7,1.9
		c1.3,0.4,2.8,0.7,3.8,1.2c1.7,0.8,3.7,1.2,6.2,1.4c1.3,0.1,2.5-0.1,3.2-0.5c0.7-0.4,0.8-0.9,0-1.3c-0.8-0.4-1.8-0.7-2.8-1.1
		c-2.6-1-3.7-2.1-2.7-3.5c0.2-0.3,0.2-0.6,0.3-0.9c0-0.4-0.7-0.8-1.9-0.8c-0.9,0-1.9,0-2.8,0.1C25.2,134.9,23.7,136.5,23.3,137.8z
		 M10.7,109.7c1.8,0.1,3.2-0.1,4.6-0.5c1.9-0.5,3.8-1.1,6.2-1.3c0.5,0,0.9-0.3,1.2-0.5c0.7-0.6,0.1-1.1-0.6-1.6
		c-1-0.7-3.4-1.1-5.5-0.8c-2.7,0.3-4.9,0.9-6.9,1.7c-1.1,0.4-1.9,1-2.5,1.5c-1,0.8,0.3,1.6,2.5,1.6C10,109.7,10.5,109.7,10.7,109.7z
		 M-14.8,143c0,1,0.7,1.4,2.4,1.5c2.7,0.1,5.4-0.1,7-1.2c1.1-0.7,0.9-1.5-0.6-2.1c-1.6-0.6-3.4-0.6-5.2,0c-0.3,0.1-0.6,0.2-0.9,0.2
		C-14.4,141.8-14.7,142.5-14.8,143z M52.9,143.3c0.3,0.7,0.7,1.4,1.1,2.1c0.3,0.5,1.4,0.6,2.4,0.7c1,0,1.6-0.3,1.8-0.7
		c0.2-0.3,0.3-0.6,0.2-0.9c-0.2-0.6-0.2-1.1,0.7-1.6c0.2-0.1,0.3-0.3,0.3-0.5c0.2-0.6-0.5-0.9-2.1-0.9
		C54.7,141.4,52.8,142.2,52.9,143.3z M0.2,108.3c2,0,3.2-0.3,3.6-0.9c0.5-0.7-0.6-1.6-2.2-2c-1.3-0.3-2.7-0.2-4,0.5
		c-1.9,0.9-1.9,1.7,0.6,2.2C-1.3,108.2-0.5,108.2,0.2,108.3z M2.2,137.3c-2.8,0-5.2,0.8-5.6,1.6c-0.3,0.7,0.2,1,1.6,1.2
		c1.4,0.2,2.9,0,3.7-0.5c0.4-0.3,1-0.5,1.6-0.7c0.8-0.2,1.4-0.5,1.2-0.9C4.3,137.6,3.4,137.3,2.2,137.3z M31.8,121.1
		C31.8,121.1,31.8,121.1,31.8,121.1c0.5,0,1,0,1.5,0c1.4-0.1,1.7-0.3,1.1-0.8c-0.4-0.4-0.8-0.7-1.1-1.1c-0.6-0.8-2.3-1.1-3.9-0.7
		c-2.1,0.6-1.9,2.1,0.4,2.5C30.4,121.1,31.1,121.1,31.8,121.1z"/>
	
		<linearGradient id="SVGID_5_" gradientUnits="userSpaceOnUse" x1="2420.5469" y1="-3455.5522" x2="2408.2893" y2="-3439.3945" gradientTransform="matrix(0.145 -0.9894 0.9894 0.145 3097.1509 2942.7339)">
		<stop  offset="0" style="stop-color:#FFFFFF"/>
		<stop  offset="1" style="stop-color:#F4FF55"/>
	</linearGradient>
	<path class="st2" d="M29.6,55.5l3.3-3.7l-5.6-2.2l5.5,0.6c-2.3-3-4.6-6-6.9-9c2.7,2.7,5.3,5.5,8,8.2l0.7-5.5l0.8,5.9l4.4-2.3
		l-3.3,3.7c2.3,1,4.6,2,6.9,3.1c-2.3-0.5-4.6-1-6.9-1.5l3.4,5.4l-4.5-4.6c-0.7,2.8-1.3,5.6-2,8.4c0.1-2.9,0.3-5.9,0.4-8.8L29.6,55.5
		z"/>
	
		<linearGradient id="SVGID_6_" gradientUnits="userSpaceOnUse" x1="206.1846" y1="271.5523" x2="215.4408" y2="271.5523" gradientTransform="matrix(0.5533 -0.833 0.833 0.5533 -322.8231 58.6836)">
		<stop  offset="0" style="stop-color:#FFFFFF"/>
		<stop  offset="1" style="stop-color:#FF6AF7"/>
	</linearGradient>
	<ellipse class="st3" cx="20" cy="33.3" rx="4.7" ry="4.6"/>
</g>
<linearGradient id="SVGID_7_" gradientUnits="userSpaceOnUse" x1="93.0284" y1="-654.0878" x2="141.8328" y2="-654.0878" gradientTransform="matrix(-0.4373 -0.8993 0.8993 -0.4373 692.2739 -156.4063)">
	<stop  offset="0.3604" style="stop-color:#FFFFFF"/>
	<stop  offset="1" style="stop-color:#92F7D2"/>
</linearGradient>
<path class="st4" d="M48.2,37.1l1.6-12.2L35,28.2l12.5-6.4c-9.1-3-18.3-6-27.4-9c9.5,1.9,19,3.8,28.5,5.8L42.1,6.4l10.2,10.8
	l5.9-10.9l-1.6,12.2c6.3-1.1,12.6-2.2,18.9-3.3C70,17.4,64.5,19.5,59,21.7L74,28l-16.1-3.1c2.7,6.6,5.3,13.2,8,19.8
	C62,38.6,58,32.4,54.1,26.3L48.2,37.1z"/>
</svg>
